# xmcd
#
# Track frame offsets:
#	150
#	15615
#	33532
#	48570
#	63035
#	74110
#	91135
#	105847
#	115597
#	129902
#	148445
#	161012
#	178202
#
# Disc length: 2640 seconds
#
# Revision: 0
# Processed by: cddbd v1.5.1PL0 Copyright (c) Steve Scherf et al.
# Submitted via: audiograbber 1.83.01
#
DISCID=b20a4e0d
DTITLE=Eleni Tsaligopoulou - Dream Era
DYEAR=1998
DGENRE=Ethnic
TTITLE0=Ela pare mou
TTITLE1=Fterwto mou Tragoudaki
TTITLE2=Esena den sou A3ize Agapi 
TTITLE3=To Limani
TTITLE4=Ola ta Diskola
TTITLE5=S'agapw Giati Eisai Wraia
TTITLE6=Min Perimenis Pia
TTITLE7=Na m'Agapas
TTITLE8=Ta Limania (To Ploio tha Salpari)
TTITLE9=Ta Paidia tis Geitonias sou
TTITLE10=Pote tha se Barethw
TTITLE11=Tzibaeri
TTITLE12=Stin Agora tou al Khalili
EXTD=
EXTT0=
EXTT1=
EXTT2=
EXTT3=
EXTT4=
EXTT5=
EXTT6=
EXTT7=
EXTT8=
EXTT9=
EXTT10=
EXTT11=
EXTT12=
PLAYORDER=
